<svg xmlns="http://www.w3.org/2000/svg" width="512" height="512" viewBox="0 0 512 512">
  <rect width="512" height="512" fill="#1a1a2e" rx="61.44"/>
  <rect x="0" y="0" width="64" height="64" fill="#2a2a4e"/><rect x="64" y="0" width="64" height="64" fill="#2a2a4e"/><rect x="128" y="0" width="64" height="64" fill="#2a2a4e"/><rect x="192" y="0" width="64" height="64" fill="#2a2a4e"/><rect x="256" y="0" width="64" height="64" fill="#2a2a4e"/><rect x="320" y="0" width="64" height="64" fill="#2a2a4e"/><rect x="384" y="0" width="64" height="64" fill="#2a2a4e"/><rect x="448" y="0" width="64" height="64" fill="#2a2a4e"/><rect x="0" y="64" width="64" height="64" fill="#2a2a4e"/><rect x="64" y="64" width="64" height="64" fill="#4a90d9"/><rect x="128" y="64" width="64" height="64" fill="#4a90d9"/><rect x="192" y="64" width="64" height="64" fill="#4a90d9"/><rect x="256" y="64" width="64" height="64" fill="#2a2a4e"/><rect x="320" y="64" width="64" height="64" fill="#4a90d9"/><rect x="384" y="64" width="64" height="64" fill="#4a90d9"/><rect x="448" y="64" width="64" height="64" fill="#2a2a4e"/><rect x="0" y="128" width="64" height="64" fill="#2a2a4e"/><rect x="64" y="128" width="64" height="64" fill="#4a90d9"/><rect x="128" y="128" width="64" height="64" fill="#2a2a4e"/><rect x="192" y="128" width="64" height="64" fill="#4a90d9"/><rect x="256" y="128" width="64" height="64" fill="#2a2a4e"/><rect x="320" y="128" width="64" height="64" fill="#4a90d9"/><rect x="384" y="128" width="64" height="64" fill="#2a2a4e"/><rect x="448" y="128" width="64" height="64" fill="#2a2a4e"/><rect x="0" y="192" width="64" height="64" fill="#2a2a4e"/><rect x="64" y="192" width="64" height="64" fill="#4a90d9"/><rect x="128" y="192" width="64" height="64" fill="#2a2a4e"/><rect x="192" y="192" width="64" height="64" fill="#4a90d9"/><rect x="256" y="192" width="64" height="64" fill="#4a90d9"/><rect x="320" y="192" width="64" height="64" fill="#4a90d9"/><rect x="384" y="192" width="64" height="64" fill="#4a90d9"/><rect x="448" y="192" width="64" height="64" fill="#2a2a4e"/><rect x="0" y="256" width="64" height="64" fill="#2a2a4e"/><rect x="64" y="256" width="64" height="64" fill="#4a90d9"/><rect x="128" y="256" width="64" height="64" fill="#4a90d9"/><rect x="192" y="256" width="64" height="64" fill="#2a2a4e"/><rect x="256" y="256" width="64" height="64" fill="#2a2a4e"/><rect x="320" y="256" width="64" height="64" fill="#2a2a4e"/><rect x="384" y="256" width="64" height="64" fill="#4a90d9"/><rect x="448" y="256" width="64" height="64" fill="#2a2a4e"/><rect x="0" y="320" width="64" height="64" fill="#2a2a4e"/><rect x="64" y="320" width="64" height="64" fill="#2a2a4e"/><rect x="128" y="320" width="64" height="64" fill="#4a90d9"/><rect x="192" y="320" width="64" height="64" fill="#4a90d9"/><rect x="256" y="320" width="64" height="64" fill="#4a90d9"/><rect x="320" y="320" width="64" height="64" fill="#2a2a4e"/><rect x="384" y="320" width="64" height="64" fill="#4a90d9"/><rect x="448" y="320" width="64" height="64" fill="#2a2a4e"/><rect x="0" y="384" width="64" height="64" fill="#2a2a4e"/><rect x="64" y="384" width="64" height="64" fill="#4a90d9"/><rect x="128" y="384" width="64" height="64" fill="#4a90d9"/><rect x="192" y="384" width="64" height="64" fill="#2a2a4e"/><rect x="256" y="384" width="64" height="64" fill="#4a90d9"/><rect x="320" y="384" width="64" height="64" fill="#4a90d9"/><rect x="384" y="384" width="64" height="64" fill="#4a90d9"/><rect x="448" y="384" width="64" height="64" fill="#2a2a4e"/><rect x="0" y="448" width="64" height="64" fill="#2a2a4e"/><rect x="64" y="448" width="64" height="64" fill="#2a2a4e"/><rect x="128" y="448" width="64" height="64" fill="#2a2a4e"/><rect x="192" y="448" width="64" height="64" fill="#2a2a4e"/><rect x="256" y="448" width="64" height="64" fill="#2a2a4e"/><rect x="320" y="448" width="64" height="64" fill="#2a2a4e"/><rect x="384" y="448" width="64" height="64" fill="#2a2a4e"/><rect x="448" y="448" width="64" height="64" fill="#2a2a4e"/>
  <!-- Round corners mask -->
  <defs>
    <mask id="roundMask">
      <rect width="512" height="512" fill="black"/>
      <rect width="512" height="512" fill="white" rx="61.44"/>
    </mask>
  </defs>
  <rect width="512" height="512" fill="#1a1a2e" mask="url(#roundMask)"/>
  <!-- Redraw maze inside rounded rect -->
  <g mask="url(#roundMask)">
    <rect width="512" height="512" fill="#1a1a2e"/>
    <rect x="0" y="0" width="64" height="64" fill="#2a2a4e"/><rect x="64" y="0" width="64" height="64" fill="#2a2a4e"/><rect x="128" y="0" width="64" height="64" fill="#2a2a4e"/><rect x="192" y="0" width="64" height="64" fill="#2a2a4e"/><rect x="256" y="0" width="64" height="64" fill="#2a2a4e"/><rect x="320" y="0" width="64" height="64" fill="#2a2a4e"/><rect x="384" y="0" width="64" height="64" fill="#2a2a4e"/><rect x="448" y="0" width="64" height="64" fill="#2a2a4e"/><rect x="0" y="64" width="64" height="64" fill="#2a2a4e"/><rect x="64" y="64" width="64" height="64" fill="#4a90d9"/><rect x="128" y="64" width="64" height="64" fill="#4a90d9"/><rect x="192" y="64" width="64" height="64" fill="#4a90d9"/><rect x="256" y="64" width="64" height="64" fill="#2a2a4e"/><rect x="320" y="64" width="64" height="64" fill="#4a90d9"/><rect x="384" y="64" width="64" height="64" fill="#4a90d9"/><rect x="448" y="64" width="64" height="64" fill="#2a2a4e"/><rect x="0" y="128" width="64" height="64" fill="#2a2a4e"/><rect x="64" y="128" width="64" height="64" fill="#4a90d9"/><rect x="128" y="128" width="64" height="64" fill="#2a2a4e"/><rect x="192" y="128" width="64" height="64" fill="#4a90d9"/><rect x="256" y="128" width="64" height="64" fill="#2a2a4e"/><rect x="320" y="128" width="64" height="64" fill="#4a90d9"/><rect x="384" y="128" width="64" height="64" fill="#2a2a4e"/><rect x="448" y="128" width="64" height="64" fill="#2a2a4e"/><rect x="0" y="192" width="64" height="64" fill="#2a2a4e"/><rect x="64" y="192" width="64" height="64" fill="#4a90d9"/><rect x="128" y="192" width="64" height="64" fill="#2a2a4e"/><rect x="192" y="192" width="64" height="64" fill="#4a90d9"/><rect x="256" y="192" width="64" height="64" fill="#4a90d9"/><rect x="320" y="192" width="64" height="64" fill="#4a90d9"/><rect x="384" y="192" width="64" height="64" fill="#4a90d9"/><rect x="448" y="192" width="64" height="64" fill="#2a2a4e"/><rect x="0" y="256" width="64" height="64" fill="#2a2a4e"/><rect x="64" y="256" width="64" height="64" fill="#4a90d9"/><rect x="128" y="256" width="64" height="64" fill="#4a90d9"/><rect x="192" y="256" width="64" height="64" fill="#2a2a4e"/><rect x="256" y="256" width="64" height="64" fill="#2a2a4e"/><rect x="320" y="256" width="64" height="64" fill="#2a2a4e"/><rect x="384" y="256" width="64" height="64" fill="#4a90d9"/><rect x="448" y="256" width="64" height="64" fill="#2a2a4e"/><rect x="0" y="320" width="64" height="64" fill="#2a2a4e"/><rect x="64" y="320" width="64" height="64" fill="#2a2a4e"/><rect x="128" y="320" width="64" height="64" fill="#4a90d9"/><rect x="192" y="320" width="64" height="64" fill="#4a90d9"/><rect x="256" y="320" width="64" height="64" fill="#4a90d9"/><rect x="320" y="320" width="64" height="64" fill="#2a2a4e"/><rect x="384" y="320" width="64" height="64" fill="#4a90d9"/><rect x="448" y="320" width="64" height="64" fill="#2a2a4e"/><rect x="0" y="384" width="64" height="64" fill="#2a2a4e"/><rect x="64" y="384" width="64" height="64" fill="#4a90d9"/><rect x="128" y="384" width="64" height="64" fill="#4a90d9"/><rect x="192" y="384" width="64" height="64" fill="#2a2a4e"/><rect x="256" y="384" width="64" height="64" fill="#4a90d9"/><rect x="320" y="384" width="64" height="64" fill="#4a90d9"/><rect x="384" y="384" width="64" height="64" fill="#4a90d9"/><rect x="448" y="384" width="64" height="64" fill="#2a2a4e"/><rect x="0" y="448" width="64" height="64" fill="#2a2a4e"/><rect x="64" y="448" width="64" height="64" fill="#2a2a4e"/><rect x="128" y="448" width="64" height="64" fill="#2a2a4e"/><rect x="192" y="448" width="64" height="64" fill="#2a2a4e"/><rect x="256" y="448" width="64" height="64" fill="#2a2a4e"/><rect x="320" y="448" width="64" height="64" fill="#2a2a4e"/><rect x="384" y="448" width="64" height="64" fill="#2a2a4e"/><rect x="448" y="448" width="64" height="64" fill="#2a2a4e"/>
  </g>
  <!-- Star glow -->
  <circle cx="256" cy="256" r="143.36" fill="#1a1a2e" opacity="0.85"/>
  <circle cx="256" cy="256" r="121.85600000000001" fill="#222244" opacity="0.6"/>
  <!-- Gold star -->
  <polygon points="256,143.36 283.08514442563717,218.72049689920243 363.1270059954861,221.19232575360593 299.82468427088065,270.23950310079755 322.20813081822416,347.12767424639406 256,302.08 189.79186918177584,347.12767424639406 212.17531572911932,270.2395031007976 148.87299400451388,221.19232575360593 228.91485557436283,218.72049689920243" fill="#ffd700" stroke="#ffaa00" stroke-width="5.12"/>
  <!-- Shine dot -->
  <circle cx="227.84" cy="216.576" r="12.8" fill="white" opacity="0.7"/>
</svg>